<svg width="54" height="43" viewBox="0 0 54 43" fill="none" xmlns="http://www.w3.org/2000/svg">
<path d="M28.4742 31.25H14.1724C9.73072 24.6788 6 17.5037 6 5H36.6466C36.6466 17.3966 32.8056 24.8822 28.4742 31.25ZM38.9329 9.375C38.8164 10.9084 38.6448 12.3653 38.418 13.75H41.5828C40.6654 16.5719 38.5181 19.1706 36.8857 20.1244C36.1543 22.395 35.2778 24.4578 34.3114 26.3631C41.0026 23.8628 46.2574 16.4997 46.8622 9.375H38.9329ZM36.6466 35.625H6V40H36.6466V35.625Z" fill="#F1A661"/>
<path d="M16.2064 9.96409C16.2304 9.90809 16.2704 9.88009 16.3264 9.88009C16.3824 9.88009 16.4224 9.91609 16.4464 9.98809C16.5904 10.3801 16.7544 10.6721 16.9384 10.8641C17.0104 10.9361 17.0064 11.0321 16.9264 11.1521C16.8864 11.2081 16.8504 11.2601 16.8184 11.3081C16.7864 11.3561 16.7584 11.3961 16.7344 11.4281C16.6864 11.4841 16.6624 11.5641 16.6624 11.6681C16.6784 11.9321 16.7064 12.2481 16.7464 12.6161C16.7864 12.9761 16.8344 13.3881 16.8904 13.8521C16.9544 14.3161 17.0024 14.7281 17.0344 15.0881C17.0744 15.4401 17.1024 15.7441 17.1184 16.0001C17.1824 16.8161 17.0744 17.5481 16.7944 18.1961C16.6264 18.6041 16.2064 18.9521 15.5344 19.2401C14.8544 19.5281 14.2544 19.6681 13.7344 19.6601C12.1904 19.6361 11.4144 18.9641 11.4064 17.6441C11.3984 16.7721 11.7024 15.9361 12.3184 15.1361C12.3584 15.0801 12.4024 15.0601 12.4504 15.0761C12.5064 15.0921 12.5384 15.1201 12.5464 15.1601C12.5624 15.2161 12.5544 15.2681 12.5224 15.3161C12.0984 16.0841 11.9024 16.6401 11.9344 16.9841C12.0464 17.9681 12.7784 18.4361 14.1304 18.3881C15.2904 18.3481 16.1264 18.0001 16.6384 17.3441C16.6304 17.0881 16.6024 16.7401 16.5544 16.3001C16.5144 15.8521 16.4504 15.3081 16.3624 14.6681C16.2824 14.0281 16.2104 13.4081 16.1464 12.8081C16.0824 12.2081 16.0304 11.6281 15.9904 11.0681L15.9424 10.6601C15.9424 10.5961 15.9544 10.5401 15.9784 10.4921L16.2064 9.96409ZM23.3649 16.5161C23.4289 16.9161 23.4129 17.1561 23.3169 17.2361C23.2289 17.3161 23.1609 17.2561 23.1129 17.0561C22.8009 15.8961 22.0089 14.9281 20.7369 14.1521C20.6169 14.0801 20.5409 14.0801 20.5089 14.1521L20.3889 14.3921C20.3489 14.4561 20.3049 14.4921 20.2569 14.5001C20.2089 14.5081 20.1049 14.4641 19.9449 14.3681L18.9009 13.6481C18.7409 13.5361 18.6609 13.4121 18.6609 13.2761L18.6369 12.0041C18.6369 11.9161 18.6889 11.8481 18.7929 11.8001C18.8969 11.7521 18.9969 11.7521 19.0929 11.8001C21.6849 13.1841 23.1089 14.7561 23.3649 16.5161ZM24.0523 11.2841L24.3763 10.7921C24.5123 10.5841 24.5923 10.6281 24.6163 10.9241C24.7283 12.3801 24.8323 13.5721 24.9283 14.5001C25.0323 15.4201 25.1363 16.0761 25.2403 16.4681C25.4483 17.2601 25.7603 17.7081 26.1763 17.8121C26.4083 17.8761 26.4883 18.1521 26.4163 18.6401C26.3923 18.8081 26.3123 18.8921 26.1763 18.8921C25.4883 18.8921 25.0283 18.4761 24.7963 17.6441C24.7323 17.4121 24.6723 17.1241 24.6163 16.7801C24.5603 16.4361 24.5083 16.0401 24.4603 15.5921C24.4123 15.1441 24.3723 14.8001 24.3403 14.5601C24.3083 14.3121 24.2883 14.1721 24.2803 14.1401C24.2723 14.1081 24.2643 14.0881 24.2563 14.0801C24.2483 14.0641 24.2403 14.0521 24.2323 14.0441C24.2163 14.0361 24.1883 14.2201 24.1483 14.5961C23.9403 16.4201 23.4443 17.7441 22.6603 18.5681C22.3163 18.9201 21.9243 19.1521 21.4843 19.2641C21.0043 19.3761 20.6043 19.4561 20.2843 19.5041C19.9643 19.5601 19.7283 19.5801 19.5763 19.5641C19.5363 19.5641 19.5163 19.5361 19.5163 19.4801C19.5163 19.4401 19.5403 19.4081 19.5883 19.3841C19.8523 19.2881 20.1523 19.1481 20.4883 18.9641C20.8163 18.7881 21.1883 18.5761 21.6043 18.3281C22.4283 17.8241 22.9563 17.3481 23.1883 16.9001C23.4923 16.2921 23.7043 15.4681 23.8243 14.4281C23.8883 13.9081 23.9323 13.4561 23.9563 13.0721C23.9803 12.6881 23.9883 12.3801 23.9803 12.1481C23.9723 11.9161 23.9723 11.7281 23.9803 11.5841C23.9963 11.4321 24.0203 11.3321 24.0523 11.2841ZM29.9217 16.1921C30.0817 16.2641 30.2617 16.3361 30.4617 16.4081C30.6617 16.4721 30.8817 16.5361 31.1217 16.6001C31.3617 16.6561 31.5977 16.7041 31.8297 16.7441C32.0617 16.7761 32.2897 16.7881 32.5137 16.7801C32.5857 16.7801 32.6417 16.7961 32.6817 16.8281C32.7217 16.8601 32.7257 16.9161 32.6937 16.9961C32.6217 17.1481 32.5577 17.2801 32.5017 17.3921C32.4537 17.5041 32.4097 17.5921 32.3697 17.6561C32.2897 17.7841 32.2177 17.8481 32.1537 17.8481C31.9377 17.8241 31.7057 17.8161 31.4577 17.8241C31.2177 17.8321 30.9617 17.8601 30.6897 17.9081C30.4177 17.9561 30.1617 18.0081 29.9217 18.0641C29.6817 18.1201 29.4577 18.1841 29.2497 18.2561C28.0497 18.6561 27.3017 18.8681 27.0057 18.8921C26.7097 18.9161 26.4337 18.9161 26.1777 18.8921C26.1537 18.1241 26.1657 17.6961 26.2137 17.6081C26.3257 17.3921 26.4457 17.1841 26.5737 16.9841C26.7017 16.7841 26.8377 16.5921 26.9817 16.4081C27.4457 15.8241 27.8217 15.5401 28.1097 15.5561C28.2537 15.5641 28.4777 15.6201 28.7817 15.7241C29.0857 15.8281 29.4657 15.9841 29.9217 16.1921ZM29.1537 17.1521C28.6577 16.8721 28.1777 16.7241 27.7137 16.7081C27.4737 16.7081 27.2457 16.8041 27.0297 16.9961C26.8217 17.1801 26.6577 17.4441 26.5377 17.7881C26.9057 17.8121 27.6057 17.6921 28.6377 17.4281L29.1537 17.2961C29.1937 17.2801 29.2177 17.2641 29.2257 17.2481C29.2417 17.2241 29.2177 17.1921 29.1537 17.1521Z" fill="#140D07"/>
</svg>
