<svg width="30" height="30" viewBox="0 0 30 30" fill="none" xmlns="http://www.w3.org/2000/svg">
<rect width="30" height="30" rx="15" fill="#FDEEDC"/>
<path d="M22.8625 20.714C22.3711 20.2433 21.8928 19.7591 21.4281 19.2619C21.0378 18.8653 20.8027 18.5767 20.8027 18.5767L17.8646 17.174C19.0409 15.84 19.6901 14.1229 19.6905 12.3445C19.6905 8.29556 16.3956 5 12.3452 5C8.29486 5 5 8.29556 5 12.3445C5 16.3933 8.29486 19.6889 12.3452 19.6889C14.1952 19.6889 15.8814 18.9964 17.1752 17.8643L18.5782 20.8021C18.5782 20.8021 18.8667 21.0371 19.2634 21.4274C19.6695 21.8083 20.2036 22.3235 20.7156 22.8617L22.1406 24.3222L22.7744 25L25 22.7746L24.3221 22.1409C23.9244 21.7506 23.3935 21.2323 22.8625 20.714ZM12.3452 17.5905C9.45226 17.5905 7.09864 15.2371 7.09864 12.3445C7.09864 9.45179 9.45226 7.09842 12.3452 7.09842C15.2382 7.09842 17.5918 9.45179 17.5918 12.3445C17.5918 15.2371 15.2382 17.5905 12.3452 17.5905Z" fill="#E38B29"/>
</svg>
